<mxfile host="app.diagrams.net" modified="2023-11-29T10:57:40.931Z" agent="Mozilla/5.0 (Windows NT 10.0; Win64; x64) AppleWebKit/537.36 (KHTML, like Gecko) Chrome/118.0.0.0 Safari/537.36 OPR/104.0.0.0 (Edition Yx GX 03)" etag="R1q1pjOECNxS1QHABOiQ" version="22.1.4" type="device">
  <diagram name="Страница — 1" id="d4_QYUorZCJm4Ev28uNU">
    <mxGraphModel dx="1393" dy="797" grid="1" gridSize="10" guides="1" tooltips="1" connect="1" arrows="1" fold="1" page="1" pageScale="1" pageWidth="827" pageHeight="1169" math="0" shadow="0">
      <root>
        <mxCell id="0" />
        <mxCell id="1" parent="0" />
        <mxCell id="yCQGR8yOdNzY2n0NGuCj-2" value="Сотрудник" style="rounded=0;whiteSpace=wrap;html=1;" parent="1" vertex="1">
          <mxGeometry x="360" y="110" width="120" height="60" as="geometry" />
        </mxCell>
        <mxCell id="yCQGR8yOdNzY2n0NGuCj-3" value="Покупатель" style="rounded=0;whiteSpace=wrap;html=1;" parent="1" vertex="1">
          <mxGeometry x="360" y="390" width="120" height="60" as="geometry" />
        </mxCell>
        <mxCell id="yCQGR8yOdNzY2n0NGuCj-4" value="Продажа" style="rhombus;whiteSpace=wrap;html=1;" parent="1" vertex="1">
          <mxGeometry x="380" y="240" width="80" height="80" as="geometry" />
        </mxCell>
        <mxCell id="yCQGR8yOdNzY2n0NGuCj-5" value="Эл. почта" style="ellipse;whiteSpace=wrap;html=1;" parent="1" vertex="1">
          <mxGeometry x="200" y="485" width="100" height="55" as="geometry" />
        </mxCell>
        <mxCell id="yCQGR8yOdNzY2n0NGuCj-6" value="" style="endArrow=none;html=1;rounded=0;exitX=0;exitY=1;exitDx=0;exitDy=0;entryX=1;entryY=0;entryDx=0;entryDy=0;" parent="1" source="yCQGR8yOdNzY2n0NGuCj-3" target="yCQGR8yOdNzY2n0NGuCj-5" edge="1">
          <mxGeometry width="50" height="50" relative="1" as="geometry">
            <mxPoint x="390" y="440" as="sourcePoint" />
            <mxPoint x="440" y="390" as="targetPoint" />
          </mxGeometry>
        </mxCell>
        <mxCell id="yCQGR8yOdNzY2n0NGuCj-7" value="Фамилия" style="ellipse;whiteSpace=wrap;html=1;" parent="1" vertex="1">
          <mxGeometry x="290" y="540" width="100" height="55" as="geometry" />
        </mxCell>
        <mxCell id="yCQGR8yOdNzY2n0NGuCj-8" value="" style="endArrow=none;html=1;rounded=0;exitX=0.25;exitY=1;exitDx=0;exitDy=0;entryX=0.5;entryY=0;entryDx=0;entryDy=0;" parent="1" source="yCQGR8yOdNzY2n0NGuCj-3" target="yCQGR8yOdNzY2n0NGuCj-7" edge="1">
          <mxGeometry width="50" height="50" relative="1" as="geometry">
            <mxPoint x="390" y="440" as="sourcePoint" />
            <mxPoint x="440" y="390" as="targetPoint" />
          </mxGeometry>
        </mxCell>
        <mxCell id="yCQGR8yOdNzY2n0NGuCj-9" value="Имя" style="ellipse;whiteSpace=wrap;html=1;" parent="1" vertex="1">
          <mxGeometry x="410" y="550" width="100" height="55" as="geometry" />
        </mxCell>
        <mxCell id="yCQGR8yOdNzY2n0NGuCj-10" value="Отчество" style="ellipse;whiteSpace=wrap;html=1;" parent="1" vertex="1">
          <mxGeometry x="520" y="540" width="100" height="55" as="geometry" />
        </mxCell>
        <mxCell id="yCQGR8yOdNzY2n0NGuCj-11" value="" style="endArrow=none;html=1;rounded=0;exitX=0.75;exitY=1;exitDx=0;exitDy=0;entryX=0.5;entryY=0;entryDx=0;entryDy=0;" parent="1" source="yCQGR8yOdNzY2n0NGuCj-3" target="yCQGR8yOdNzY2n0NGuCj-9" edge="1">
          <mxGeometry width="50" height="50" relative="1" as="geometry">
            <mxPoint x="400" y="460" as="sourcePoint" />
            <mxPoint x="390" y="530" as="targetPoint" />
          </mxGeometry>
        </mxCell>
        <mxCell id="yCQGR8yOdNzY2n0NGuCj-12" value="" style="endArrow=none;html=1;rounded=0;exitX=1;exitY=1;exitDx=0;exitDy=0;entryX=0;entryY=0;entryDx=0;entryDy=0;" parent="1" source="yCQGR8yOdNzY2n0NGuCj-3" target="yCQGR8yOdNzY2n0NGuCj-10" edge="1">
          <mxGeometry width="50" height="50" relative="1" as="geometry">
            <mxPoint x="410" y="470" as="sourcePoint" />
            <mxPoint x="400" y="540" as="targetPoint" />
          </mxGeometry>
        </mxCell>
        <mxCell id="yCQGR8yOdNzY2n0NGuCj-13" value="Код_покупателя" style="ellipse;whiteSpace=wrap;html=1;fontStyle=4" parent="1" vertex="1">
          <mxGeometry x="190" y="400" width="100" height="55" as="geometry" />
        </mxCell>
        <mxCell id="yCQGR8yOdNzY2n0NGuCj-14" value="" style="endArrow=none;html=1;rounded=0;exitX=0;exitY=0.5;exitDx=0;exitDy=0;entryX=1;entryY=0.5;entryDx=0;entryDy=0;" parent="1" source="yCQGR8yOdNzY2n0NGuCj-3" target="yCQGR8yOdNzY2n0NGuCj-13" edge="1">
          <mxGeometry width="50" height="50" relative="1" as="geometry">
            <mxPoint x="370" y="460" as="sourcePoint" />
            <mxPoint x="280" y="470" as="targetPoint" />
          </mxGeometry>
        </mxCell>
        <mxCell id="yCQGR8yOdNzY2n0NGuCj-16" value="Пол" style="ellipse;whiteSpace=wrap;html=1;" parent="1" vertex="1">
          <mxGeometry x="560" y="470" width="100" height="55" as="geometry" />
        </mxCell>
        <mxCell id="yCQGR8yOdNzY2n0NGuCj-17" value="Дата_рождения" style="ellipse;whiteSpace=wrap;html=1;" parent="1" vertex="1">
          <mxGeometry x="570" y="392.5" width="100" height="55" as="geometry" />
        </mxCell>
        <mxCell id="yCQGR8yOdNzY2n0NGuCj-19" value="" style="endArrow=none;html=1;rounded=0;exitX=1;exitY=0.75;exitDx=0;exitDy=0;entryX=0.08;entryY=0.2;entryDx=0;entryDy=0;entryPerimeter=0;" parent="1" source="yCQGR8yOdNzY2n0NGuCj-3" target="yCQGR8yOdNzY2n0NGuCj-16" edge="1">
          <mxGeometry width="50" height="50" relative="1" as="geometry">
            <mxPoint x="490" y="460" as="sourcePoint" />
            <mxPoint x="544" y="558" as="targetPoint" />
          </mxGeometry>
        </mxCell>
        <mxCell id="yCQGR8yOdNzY2n0NGuCj-20" value="" style="endArrow=none;html=1;rounded=0;exitX=1;exitY=0.5;exitDx=0;exitDy=0;entryX=0;entryY=0.5;entryDx=0;entryDy=0;" parent="1" source="yCQGR8yOdNzY2n0NGuCj-3" target="yCQGR8yOdNzY2n0NGuCj-17" edge="1">
          <mxGeometry width="50" height="50" relative="1" as="geometry">
            <mxPoint x="490" y="445" as="sourcePoint" />
            <mxPoint x="590" y="513" as="targetPoint" />
          </mxGeometry>
        </mxCell>
        <mxCell id="yCQGR8yOdNzY2n0NGuCj-21" value="" style="endArrow=none;html=1;rounded=0;entryX=0.5;entryY=1;entryDx=0;entryDy=0;exitX=0.5;exitY=0;exitDx=0;exitDy=0;" parent="1" source="yCQGR8yOdNzY2n0NGuCj-3" target="yCQGR8yOdNzY2n0NGuCj-4" edge="1">
          <mxGeometry width="50" height="50" relative="1" as="geometry">
            <mxPoint x="390" y="540" as="sourcePoint" />
            <mxPoint x="440" y="490" as="targetPoint" />
          </mxGeometry>
        </mxCell>
        <mxCell id="yCQGR8yOdNzY2n0NGuCj-22" value="" style="endArrow=none;html=1;rounded=0;entryX=0.5;entryY=1;entryDx=0;entryDy=0;exitX=0.5;exitY=0;exitDx=0;exitDy=0;" parent="1" source="yCQGR8yOdNzY2n0NGuCj-4" target="yCQGR8yOdNzY2n0NGuCj-2" edge="1">
          <mxGeometry width="50" height="50" relative="1" as="geometry">
            <mxPoint x="430" y="400" as="sourcePoint" />
            <mxPoint x="430" y="330" as="targetPoint" />
          </mxGeometry>
        </mxCell>
        <mxCell id="yCQGR8yOdNzY2n0NGuCj-23" value="Фамилия" style="ellipse;whiteSpace=wrap;html=1;" parent="1" vertex="1">
          <mxGeometry x="180" y="10" width="100" height="55" as="geometry" />
        </mxCell>
        <mxCell id="yCQGR8yOdNzY2n0NGuCj-24" value="Имя" style="ellipse;whiteSpace=wrap;html=1;" parent="1" vertex="1">
          <mxGeometry x="170" y="70" width="100" height="55" as="geometry" />
        </mxCell>
        <mxCell id="yCQGR8yOdNzY2n0NGuCj-25" value="Отчество" style="ellipse;whiteSpace=wrap;html=1;" parent="1" vertex="1">
          <mxGeometry x="290" width="100" height="55" as="geometry" />
        </mxCell>
        <mxCell id="yCQGR8yOdNzY2n0NGuCj-26" value="" style="endArrow=none;html=1;rounded=0;entryX=0;entryY=0.5;entryDx=0;entryDy=0;exitX=1;exitY=0.5;exitDx=0;exitDy=0;" parent="1" source="yCQGR8yOdNzY2n0NGuCj-24" target="yCQGR8yOdNzY2n0NGuCj-2" edge="1">
          <mxGeometry width="50" height="50" relative="1" as="geometry">
            <mxPoint x="260" y="130" as="sourcePoint" />
            <mxPoint x="220" y="210" as="targetPoint" />
          </mxGeometry>
        </mxCell>
        <mxCell id="yCQGR8yOdNzY2n0NGuCj-27" value="" style="endArrow=none;html=1;rounded=0;entryX=0;entryY=0;entryDx=0;entryDy=0;exitX=1;exitY=1;exitDx=0;exitDy=0;" parent="1" source="yCQGR8yOdNzY2n0NGuCj-23" target="yCQGR8yOdNzY2n0NGuCj-2" edge="1">
          <mxGeometry width="50" height="50" relative="1" as="geometry">
            <mxPoint x="270" y="138" as="sourcePoint" />
            <mxPoint x="370" y="150" as="targetPoint" />
          </mxGeometry>
        </mxCell>
        <mxCell id="yCQGR8yOdNzY2n0NGuCj-28" value="" style="endArrow=none;html=1;rounded=0;entryX=0.25;entryY=0;entryDx=0;entryDy=0;exitX=0.5;exitY=1;exitDx=0;exitDy=0;" parent="1" source="yCQGR8yOdNzY2n0NGuCj-25" target="yCQGR8yOdNzY2n0NGuCj-2" edge="1">
          <mxGeometry width="50" height="50" relative="1" as="geometry">
            <mxPoint x="280" y="148" as="sourcePoint" />
            <mxPoint x="380" y="160" as="targetPoint" />
          </mxGeometry>
        </mxCell>
        <mxCell id="yCQGR8yOdNzY2n0NGuCj-29" value="Код_сотрудника" style="ellipse;whiteSpace=wrap;html=1;horizontal=1;fontStyle=4" parent="1" vertex="1">
          <mxGeometry x="400" width="100" height="55" as="geometry" />
        </mxCell>
        <mxCell id="yCQGR8yOdNzY2n0NGuCj-31" value="" style="endArrow=none;html=1;rounded=0;entryX=0.5;entryY=1;entryDx=0;entryDy=0;exitX=0.5;exitY=0;exitDx=0;exitDy=0;" parent="1" source="yCQGR8yOdNzY2n0NGuCj-2" target="yCQGR8yOdNzY2n0NGuCj-29" edge="1">
          <mxGeometry width="50" height="50" relative="1" as="geometry">
            <mxPoint x="250" y="270" as="sourcePoint" />
            <mxPoint x="300" y="220" as="targetPoint" />
          </mxGeometry>
        </mxCell>
        <mxCell id="yCQGR8yOdNzY2n0NGuCj-32" value="Дата_рождения" style="ellipse;whiteSpace=wrap;html=1;" parent="1" vertex="1">
          <mxGeometry x="510" y="10" width="100" height="55" as="geometry" />
        </mxCell>
        <mxCell id="yCQGR8yOdNzY2n0NGuCj-33" value="" style="endArrow=none;html=1;rounded=0;entryX=0;entryY=1;entryDx=0;entryDy=0;exitX=1;exitY=0;exitDx=0;exitDy=0;" parent="1" source="yCQGR8yOdNzY2n0NGuCj-2" target="yCQGR8yOdNzY2n0NGuCj-32" edge="1">
          <mxGeometry width="50" height="50" relative="1" as="geometry">
            <mxPoint x="430" y="120" as="sourcePoint" />
            <mxPoint x="484" y="67" as="targetPoint" />
          </mxGeometry>
        </mxCell>
        <mxCell id="yCQGR8yOdNzY2n0NGuCj-34" value="Должность" style="ellipse;whiteSpace=wrap;html=1;" parent="1" vertex="1">
          <mxGeometry x="170" y="130" width="100" height="55" as="geometry" />
        </mxCell>
        <mxCell id="yCQGR8yOdNzY2n0NGuCj-35" value="" style="endArrow=none;html=1;rounded=0;entryX=-0.008;entryY=0.9;entryDx=0;entryDy=0;exitX=1;exitY=0.5;exitDx=0;exitDy=0;entryPerimeter=0;" parent="1" source="yCQGR8yOdNzY2n0NGuCj-34" target="yCQGR8yOdNzY2n0NGuCj-2" edge="1">
          <mxGeometry width="50" height="50" relative="1" as="geometry">
            <mxPoint x="270" y="140" as="sourcePoint" />
            <mxPoint x="370" y="150" as="targetPoint" />
          </mxGeometry>
        </mxCell>
        <mxCell id="yCQGR8yOdNzY2n0NGuCj-37" value="" style="endArrow=none;html=1;rounded=0;entryX=0.03;entryY=0.709;entryDx=0;entryDy=0;exitX=1;exitY=0.5;exitDx=0;exitDy=0;entryPerimeter=0;" parent="1" source="yCQGR8yOdNzY2n0NGuCj-2" target="3LZJ1UJKZWrPl0mPpH45-3" edge="1">
          <mxGeometry width="50" height="50" relative="1" as="geometry">
            <mxPoint x="490" y="135" as="sourcePoint" />
            <mxPoint x="524.95" y="118.995" as="targetPoint" />
          </mxGeometry>
        </mxCell>
        <mxCell id="yCQGR8yOdNzY2n0NGuCj-42" value="Номер_телефона" style="ellipse;whiteSpace=wrap;html=1;" parent="1" vertex="1">
          <mxGeometry x="570" y="150" width="100" height="55" as="geometry" />
        </mxCell>
        <mxCell id="yCQGR8yOdNzY2n0NGuCj-43" value="" style="endArrow=none;html=1;rounded=0;entryX=0;entryY=0.364;entryDx=0;entryDy=0;exitX=1;exitY=0.75;exitDx=0;exitDy=0;entryPerimeter=0;" parent="1" source="yCQGR8yOdNzY2n0NGuCj-2" target="yCQGR8yOdNzY2n0NGuCj-42" edge="1">
          <mxGeometry width="50" height="50" relative="1" as="geometry">
            <mxPoint x="490" y="165" as="sourcePoint" />
            <mxPoint x="540" y="178" as="targetPoint" />
          </mxGeometry>
        </mxCell>
        <mxCell id="yCQGR8yOdNzY2n0NGuCj-45" value="Цена" style="ellipse;whiteSpace=wrap;html=1;" parent="1" vertex="1">
          <mxGeometry x="210" y="252.5" width="100" height="55" as="geometry" />
        </mxCell>
        <mxCell id="yCQGR8yOdNzY2n0NGuCj-46" value="Код_заказа" style="ellipse;whiteSpace=wrap;html=1;fontStyle=4" parent="1" vertex="1">
          <mxGeometry x="470" y="335" width="100" height="55" as="geometry" />
        </mxCell>
        <mxCell id="yCQGR8yOdNzY2n0NGuCj-47" value="Категория_товара" style="ellipse;whiteSpace=wrap;html=1;" parent="1" vertex="1">
          <mxGeometry x="450" y="185" width="110" height="55" as="geometry" />
        </mxCell>
        <mxCell id="yCQGR8yOdNzY2n0NGuCj-48" value="Название_товара" style="ellipse;whiteSpace=wrap;html=1;" parent="1" vertex="1">
          <mxGeometry x="550" y="230" width="110" height="55" as="geometry" />
        </mxCell>
        <mxCell id="yCQGR8yOdNzY2n0NGuCj-49" value="Арктикул_товара" style="ellipse;whiteSpace=wrap;html=1;fontStyle=4" parent="1" vertex="1">
          <mxGeometry x="270" y="185" width="100" height="55" as="geometry" />
        </mxCell>
        <mxCell id="yCQGR8yOdNzY2n0NGuCj-50" value="Количество_на_складе" style="ellipse;whiteSpace=wrap;html=1;" parent="1" vertex="1">
          <mxGeometry x="180" y="320" width="160" height="55" as="geometry" />
        </mxCell>
        <mxCell id="yCQGR8yOdNzY2n0NGuCj-51" value="Описание_товара" style="ellipse;whiteSpace=wrap;html=1;" parent="1" vertex="1">
          <mxGeometry x="560" y="300" width="100" height="55" as="geometry" />
        </mxCell>
        <mxCell id="yCQGR8yOdNzY2n0NGuCj-54" value="" style="endArrow=none;html=1;rounded=0;exitX=0.125;exitY=0.625;exitDx=0;exitDy=0;entryX=0.95;entryY=0.309;entryDx=0;entryDy=0;exitPerimeter=0;entryPerimeter=0;" parent="1" source="yCQGR8yOdNzY2n0NGuCj-4" target="yCQGR8yOdNzY2n0NGuCj-50" edge="1">
          <mxGeometry width="50" height="50" relative="1" as="geometry">
            <mxPoint x="370" y="430" as="sourcePoint" />
            <mxPoint x="300" y="438" as="targetPoint" />
          </mxGeometry>
        </mxCell>
        <mxCell id="yCQGR8yOdNzY2n0NGuCj-55" value="" style="endArrow=none;html=1;rounded=0;exitX=0;exitY=0;exitDx=0;exitDy=0;entryX=1;entryY=0.5;entryDx=0;entryDy=0;" parent="1" source="yCQGR8yOdNzY2n0NGuCj-4" target="yCQGR8yOdNzY2n0NGuCj-45" edge="1">
          <mxGeometry width="50" height="50" relative="1" as="geometry">
            <mxPoint x="380" y="440" as="sourcePoint" />
            <mxPoint x="310" y="340" as="targetPoint" />
          </mxGeometry>
        </mxCell>
        <mxCell id="yCQGR8yOdNzY2n0NGuCj-56" value="" style="endArrow=none;html=1;rounded=0;exitX=0.388;exitY=0.125;exitDx=0;exitDy=0;entryX=1;entryY=1;entryDx=0;entryDy=0;exitPerimeter=0;" parent="1" source="yCQGR8yOdNzY2n0NGuCj-4" target="yCQGR8yOdNzY2n0NGuCj-49" edge="1">
          <mxGeometry width="50" height="50" relative="1" as="geometry">
            <mxPoint x="390" y="450" as="sourcePoint" />
            <mxPoint x="320" y="458" as="targetPoint" />
          </mxGeometry>
        </mxCell>
        <mxCell id="yCQGR8yOdNzY2n0NGuCj-57" value="" style="endArrow=none;html=1;rounded=0;exitX=1;exitY=1;exitDx=0;exitDy=0;entryX=0;entryY=0;entryDx=0;entryDy=0;" parent="1" source="yCQGR8yOdNzY2n0NGuCj-4" target="yCQGR8yOdNzY2n0NGuCj-46" edge="1">
          <mxGeometry width="50" height="50" relative="1" as="geometry">
            <mxPoint x="400" y="460" as="sourcePoint" />
            <mxPoint x="330" y="468" as="targetPoint" />
          </mxGeometry>
        </mxCell>
        <mxCell id="yCQGR8yOdNzY2n0NGuCj-58" value="" style="endArrow=none;html=1;rounded=0;exitX=0;exitY=0.5;exitDx=0;exitDy=0;entryX=1;entryY=0.5;entryDx=0;entryDy=0;" parent="1" source="yCQGR8yOdNzY2n0NGuCj-51" target="yCQGR8yOdNzY2n0NGuCj-4" edge="1">
          <mxGeometry width="50" height="50" relative="1" as="geometry">
            <mxPoint x="410" y="470" as="sourcePoint" />
            <mxPoint x="340" y="478" as="targetPoint" />
          </mxGeometry>
        </mxCell>
        <mxCell id="yCQGR8yOdNzY2n0NGuCj-59" value="" style="endArrow=none;html=1;rounded=0;exitX=0;exitY=0.5;exitDx=0;exitDy=0;entryX=1;entryY=0;entryDx=0;entryDy=0;" parent="1" source="yCQGR8yOdNzY2n0NGuCj-48" target="yCQGR8yOdNzY2n0NGuCj-4" edge="1">
          <mxGeometry width="50" height="50" relative="1" as="geometry">
            <mxPoint x="420" y="480" as="sourcePoint" />
            <mxPoint x="350" y="488" as="targetPoint" />
          </mxGeometry>
        </mxCell>
        <mxCell id="yCQGR8yOdNzY2n0NGuCj-60" value="" style="endArrow=none;html=1;rounded=0;exitX=0;exitY=1;exitDx=0;exitDy=0;entryX=0.613;entryY=0.1;entryDx=0;entryDy=0;entryPerimeter=0;" parent="1" source="yCQGR8yOdNzY2n0NGuCj-47" target="yCQGR8yOdNzY2n0NGuCj-4" edge="1">
          <mxGeometry width="50" height="50" relative="1" as="geometry">
            <mxPoint x="430" y="490" as="sourcePoint" />
            <mxPoint x="360" y="498" as="targetPoint" />
          </mxGeometry>
        </mxCell>
        <mxCell id="3LZJ1UJKZWrPl0mPpH45-3" value="Эл.почта" style="ellipse;whiteSpace=wrap;html=1;" vertex="1" parent="1">
          <mxGeometry x="570" y="70" width="100" height="55" as="geometry" />
        </mxCell>
      </root>
    </mxGraphModel>
  </diagram>
</mxfile>
